
    <svg width="48" viewBox="120 120 784 784">
<path fill="white" opacity="1.000000" stroke="none" 
	d="
M518.926270,162.709076 
	C530.189697,164.778595 538.584839,170.454132 545.203430,179.268326 
	C552.797729,189.382080 559.383667,200.362976 568.624695,209.117462 
	C587.793945,227.277481 610.384827,232.330917 635.594238,225.067764 
	C644.375427,222.537781 652.951355,219.176422 661.421082,215.706711 
	C686.821838,205.301102 716.274170,220.407120 717.431274,254.313904 
	C717.838074,266.236298 718.189941,278.334534 721.285034,289.964111 
	C728.488464,317.031036 745.728821,334.422668 772.777527,341.883453 
	C781.438171,344.272278 790.221619,346.213196 798.895691,348.556091 
	C823.702881,355.256470 836.576599,380.494385 826.964539,404.312225 
	C823.297668,413.398651 818.466370,422.019958 814.080017,430.810455 
	C800.124146,458.778992 801.251953,485.872498 819.743286,511.335907 
	C826.168762,520.184143 834.204407,527.882141 841.669617,535.952881 
	C861.972229,557.902039 858.060120,587.542725 832.723816,603.370422 
	C822.559875,609.719849 811.491943,614.725159 802.290955,622.492981 
	C780.177979,641.161255 771.693115,664.940674 776.776733,693.464233 
	C778.555420,703.444275 780.315247,713.435059 782.439697,723.344604 
	C786.892700,744.115784 770.370239,772.573303 739.095032,770.563110 
	C729.462769,769.944031 719.782410,769.058777 710.164978,769.411682 
	C680.779358,770.490051 659.735107,784.702209 647.524414,811.414612 
	C643.101624,821.089844 639.818787,831.282654 635.919983,841.201599 
	C625.498474,867.714600 597.064697,875.923645 574.100647,859.046448 
	C568.462036,854.902405 562.889282,850.664734 557.372437,846.359619 
	C528.888977,824.131775 496.765076,824.203796 468.354126,846.545837 
	C462.592865,851.076294 456.767517,855.532471 450.846649,859.851440 
	C429.238617,875.613098 400.582672,867.106140 390.598633,842.255676 
	C385.697906,830.057617 382.169373,817.259155 375.720856,805.736023 
	C362.709534,782.485718 342.739075,770.105225 316.059326,769.364319 
	C305.762146,769.078430 295.407257,769.699402 285.119904,770.462952 
	C260.387054,772.298706 237.698395,748.766968 244.021103,720.077698 
	C246.667435,708.069946 249.821655,696.023621 250.430481,683.775085 
	C251.811157,655.999023 240.714401,633.877319 217.630432,618.194763 
	C209.511139,612.678833 200.838638,607.977966 192.426132,602.892761 
	C168.797043,588.609192 164.295212,557.996094 182.830505,537.490906 
	C188.417130,531.310486 194.048035,525.169189 199.724503,519.071228 
	C222.906143,494.168121 227.624832,462.826263 212.699219,432.187073 
	C208.834259,424.253082 204.817703,416.392334 200.820755,408.523346 
	C188.294571,383.862549 199.904404,356.511108 226.441360,348.674286 
	C235.370728,346.037262 244.520798,344.157593 253.517105,341.735321 
	C284.144379,333.488831 304.920593,307.723663 306.788879,276.189453 
	C307.378754,266.233246 308.309021,256.275726 309.604492,246.387054 
	C312.872162,221.444061 337.893433,206.292450 361.626007,214.712051 
	C369.002136,217.328888 376.381500,219.957611 383.646210,222.863846 
	C414.804932,235.328857 447.472260,225.384872 466.531403,198.622101 
	C470.878967,192.517303 475.615051,186.687790 479.921265,180.555252 
	C489.362366,167.109985 501.971558,160.722061 518.926270,162.709076 
M555.772949,422.283386 
	C547.130371,432.873688 542.300293,445.183502 542.669800,458.666107 
	C543.708618,496.578613 577.429443,520.112244 610.252258,513.588318 
	C644.952515,506.691162 665.088562,468.801422 651.093933,436.463013 
	C634.331055,397.727753 585.095215,390.091980 555.772949,422.283386 
M396.063568,505.450623 
	C417.445648,518.317810 438.898193,518.339417 459.335052,504.074402 
	C478.577179,490.643250 486.065155,471.273346 482.316620,448.288940 
	C477.823151,420.737030 451.976562,399.387695 420.455048,402.250244 
	C393.549896,404.693573 370.485352,429.508850 370.501740,457.567200 
	C370.513397,477.517731 379.093384,493.454529 396.063568,505.450623 
z"/>
<path fill="white" opacity="1.000000" stroke="none" 
	d="
M572.150635,431.501648 
	C586.706482,432.146179 597.808289,441.663239 599.258728,454.371277 
	C600.914062,468.874512 592.973633,480.633118 578.795044,484.332855 
	C568.014587,487.145966 558.985107,483.596741 551.949280,475.468353 
	C544.926453,467.354980 543.595154,457.706116 547.690735,447.919800 
	C551.775757,438.158600 559.402100,432.444336 570.245361,431.600830 
	C570.742371,431.562134 571.241089,431.544861 572.150635,431.501648 
z"/>
<path fill="white" opacity="1.000000" stroke="none" 
	d="
M429.061554,469.623566 
	C424.261749,456.982788 426.991150,445.001526 436.116028,437.555115 
	C445.302856,430.058228 457.742188,429.233521 467.768127,435.456665 
	C476.928802,441.142761 482.082428,452.645935 480.082031,462.942200 
	C477.878021,474.286499 469.305023,482.700439 457.643341,484.964539 
	C447.900635,486.856079 436.662201,481.835602 430.945526,473.012939 
	C430.314148,472.038513 429.801025,470.987457 429.061554,469.623566 
z"/>
</svg>